<svg xmlns="http://www.w3.org/2000/svg" xmlns:xlink="http://www.w3.org/1999/xlink" width="1366" zoomAndPan="magnify" viewBox="0 0 1024.5 576" height="768" preserveAspectRatio="xMidYMid meet" version="1.0"><defs><g/><clipPath id="2a80f0b7fa"><path d="M 0 0.140625 L 1024 0.140625 L 1024 575.859375 L 0 575.859375 Z M 0 0.140625 " clip-rule="nonzero"/></clipPath><clipPath id="3da8094674"><path d="M 0 550.898438 L 23.691406 550.898438 L 23.691406 575.851562 L 0 575.851562 Z M 0 550.898438 " clip-rule="nonzero"/></clipPath><clipPath id="f3229754d5"><path d="M 23.691406 525.945312 L 46.308594 525.945312 L 46.308594 550.898438 L 23.691406 550.898438 Z M 23.691406 525.945312 " clip-rule="nonzero"/></clipPath><clipPath id="95fb5c4026"><path d="M 46.308594 550.898438 L 68.921875 550.898438 L 68.921875 575.851562 L 46.308594 575.851562 Z M 46.308594 550.898438 " clip-rule="nonzero"/></clipPath><clipPath id="11e81e4107"><path d="M 68.921875 525.945312 L 91.535156 525.945312 L 91.535156 550.898438 L 68.921875 550.898438 Z M 68.921875 525.945312 " clip-rule="nonzero"/></clipPath><clipPath id="cf3c3ab39f"><path d="M 0 500.992188 L 23.691406 500.992188 L 23.691406 525.945312 L 0 525.945312 Z M 0 500.992188 " clip-rule="nonzero"/></clipPath><clipPath id="d6169c7414"><path d="M 46.308594 501 L 68.921875 501 L 68.921875 525.945312 L 46.308594 525.945312 Z M 46.308594 501 " clip-rule="nonzero"/></clipPath><clipPath id="9c00060e25"><path d="M 23.878906 476.035156 L 46.492188 476.035156 L 46.492188 500.988281 L 23.878906 500.988281 Z M 23.878906 476.035156 " clip-rule="nonzero"/></clipPath><clipPath id="8e9f85ba0c"><path d="M 46.492188 451.082031 L 69.105469 451.082031 L 69.105469 476.035156 L 46.492188 476.035156 Z M 46.492188 451.082031 " clip-rule="nonzero"/></clipPath><clipPath id="667e5671e7"><path d="M 69.105469 476.035156 L 91.722656 476.035156 L 91.722656 500.988281 L 69.105469 500.988281 Z M 69.105469 476.035156 " clip-rule="nonzero"/></clipPath><clipPath id="35aa23a97f"><path d="M 91.722656 451.082031 L 114.335938 451.082031 L 114.335938 476.035156 L 91.722656 476.035156 Z M 91.722656 451.082031 " clip-rule="nonzero"/></clipPath><clipPath id="6c086d459c"><path d="M 23.878906 426.125 L 46.492188 426.125 L 46.492188 451.082031 L 23.878906 451.082031 Z M 23.878906 426.125 " clip-rule="nonzero"/></clipPath><clipPath id="e085e3cc5a"><path d="M 69.105469 426.125 L 91.722656 426.125 L 91.722656 451.082031 L 69.105469 451.082031 Z M 69.105469 426.125 " clip-rule="nonzero"/></clipPath><clipPath id="4fb4580da0"><path d="M 91 550.898438 L 113.613281 550.898438 L 113.613281 575.851562 L 91 575.851562 Z M 91 550.898438 " clip-rule="nonzero"/></clipPath><clipPath id="24d0a39711"><path d="M 113.613281 525.945312 L 136.230469 525.945312 L 136.230469 550.898438 L 113.613281 550.898438 Z M 113.613281 525.945312 " clip-rule="nonzero"/></clipPath><clipPath id="047638c06b"><path d="M 136.230469 550.898438 L 158.84375 550.898438 L 158.84375 575.851562 L 136.230469 575.851562 Z M 136.230469 550.898438 " clip-rule="nonzero"/></clipPath><clipPath id="df39c561de"><path d="M 113.613281 476.035156 L 136.230469 476.035156 L 136.230469 500.988281 L 113.613281 500.988281 Z M 113.613281 476.035156 " clip-rule="nonzero"/></clipPath><clipPath id="8f3da88f81"><path d="M 91 501 L 113.613281 501 L 113.613281 525.945312 L 91 525.945312 Z M 91 501 " clip-rule="nonzero"/></clipPath><clipPath id="42e471eb3a"><path d="M 136.230469 501 L 158.84375 501 L 158.84375 525.945312 L 136.230469 525.945312 Z M 136.230469 501 " clip-rule="nonzero"/></clipPath><clipPath id="abd99d4c33"><path d="M 0 451.082031 L 23.875 451.082031 L 23.875 476.039062 L 0 476.039062 Z M 0 451.082031 " clip-rule="nonzero"/></clipPath><clipPath id="6ce5ba32a7"><path d="M 0 401.171875 L 23.152344 401.171875 L 23.152344 426.128906 L 0 426.128906 Z M 0 401.171875 " clip-rule="nonzero"/></clipPath><clipPath id="ebe3e97eb0"><path d="M 23.15625 376.21875 L 45.769531 376.21875 L 45.769531 401.171875 L 23.15625 401.171875 Z M 23.15625 376.21875 " clip-rule="nonzero"/></clipPath><clipPath id="111e27596a"><path d="M 45.769531 401.171875 L 68.382812 401.171875 L 68.382812 426.125 L 45.769531 426.125 Z M 45.769531 401.171875 " clip-rule="nonzero"/></clipPath><clipPath id="1ee5b76702"><path d="M 0 351.265625 L 23.152344 351.265625 L 23.152344 376.21875 L 0 376.21875 Z M 0 351.265625 " clip-rule="nonzero"/></clipPath><clipPath id="b650b5d833"><path d="M 158.84375 525.945312 L 181.457031 525.945312 L 181.457031 550.898438 L 158.84375 550.898438 Z M 158.84375 525.945312 " clip-rule="nonzero"/></clipPath><clipPath id="bfdbd0aed1"><path d="M 180.824219 550.898438 L 203.4375 550.898438 L 203.4375 575.851562 L 180.824219 575.851562 Z M 180.824219 550.898438 " clip-rule="nonzero"/></clipPath><clipPath id="8d6601fb61"><path d="M 180.277344 300.476562 L 202.890625 300.476562 L 202.890625 325.429688 L 180.277344 325.429688 Z M 180.277344 300.476562 " clip-rule="nonzero"/></clipPath><clipPath id="2cd7a45176"><path d="M 157.660156 325.429688 L 180.277344 325.429688 L 180.277344 350.382812 L 157.660156 350.382812 Z M 157.660156 325.429688 " clip-rule="nonzero"/></clipPath><clipPath id="b2b94bdf58"><path d="M 135.046875 300.476562 L 157.660156 300.476562 L 157.660156 325.429688 L 135.046875 325.429688 Z M 135.046875 300.476562 " clip-rule="nonzero"/></clipPath><clipPath id="6596654634"><path d="M 112.429688 325.429688 L 135.046875 325.429688 L 135.046875 350.382812 L 112.429688 350.382812 Z M 112.429688 325.429688 " clip-rule="nonzero"/></clipPath><clipPath id="86e0937b17"><path d="M 180.277344 350.382812 L 202.890625 350.382812 L 202.890625 375.339844 L 180.277344 375.339844 Z M 180.277344 350.382812 " clip-rule="nonzero"/></clipPath><clipPath id="088c8b138a"><path d="M 135.046875 350.382812 L 157.660156 350.382812 L 157.660156 375.339844 L 135.046875 375.339844 Z M 135.046875 350.382812 " clip-rule="nonzero"/></clipPath><clipPath id="6f464b45a5"><path d="M 157.476562 375.339844 L 180.089844 375.339844 L 180.089844 400.292969 L 157.476562 400.292969 Z M 157.476562 375.339844 " clip-rule="nonzero"/></clipPath><clipPath id="a72087805f"><path d="M 134.859375 400.292969 L 157.476562 400.292969 L 157.476562 425.246094 L 134.859375 425.246094 Z M 134.859375 400.292969 " clip-rule="nonzero"/></clipPath><clipPath id="4f53c1a445"><path d="M 112.246094 375.339844 L 134.859375 375.339844 L 134.859375 400.292969 L 112.246094 400.292969 Z M 112.246094 375.339844 " clip-rule="nonzero"/></clipPath><clipPath id="1e25338c66"><path d="M 89.632812 400.292969 L 112.246094 400.292969 L 112.246094 425.246094 L 89.632812 425.246094 Z M 89.632812 400.292969 " clip-rule="nonzero"/></clipPath><clipPath id="07dadab620"><path d="M 157.476562 425.246094 L 180.089844 425.246094 L 180.089844 450.199219 L 157.476562 450.199219 Z M 157.476562 425.246094 " clip-rule="nonzero"/></clipPath><clipPath id="8083d15035"><path d="M 112.246094 425.246094 L 134.859375 425.246094 L 134.859375 450.199219 L 112.246094 450.199219 Z M 112.246094 425.246094 " clip-rule="nonzero"/></clipPath><clipPath id="b8e6d8a77a"><path d="M 90.355469 300.476562 L 112.96875 300.476562 L 112.96875 325.429688 L 90.355469 325.429688 Z M 90.355469 300.476562 " clip-rule="nonzero"/></clipPath><clipPath id="0af80d9cef"><path d="M 67.738281 325.429688 L 90.355469 325.429688 L 90.355469 350.382812 L 67.738281 350.382812 Z M 67.738281 325.429688 " clip-rule="nonzero"/></clipPath><clipPath id="fad2c6b031"><path d="M 45.125 300.476562 L 67.738281 300.476562 L 67.738281 325.429688 L 45.125 325.429688 Z M 45.125 300.476562 " clip-rule="nonzero"/></clipPath><clipPath id="c6481bcb95"><path d="M 67.738281 375.339844 L 90.355469 375.339844 L 90.355469 400.292969 L 67.738281 400.292969 Z M 67.738281 375.339844 " clip-rule="nonzero"/></clipPath><clipPath id="62dd25426d"><path d="M 90.355469 350.382812 L 112.96875 350.382812 L 112.96875 375.339844 L 90.355469 375.339844 Z M 90.355469 350.382812 " clip-rule="nonzero"/></clipPath><clipPath id="e8b6ee0bf1"><path d="M 45.125 350.382812 L 67.738281 350.382812 L 67.738281 375.339844 L 45.125 375.339844 Z M 45.125 350.382812 " clip-rule="nonzero"/></clipPath><clipPath id="e9d2a13ffd"><path d="M 180.089844 400.292969 L 202.707031 400.292969 L 202.707031 425.246094 L 180.089844 425.246094 Z M 180.089844 400.292969 " clip-rule="nonzero"/></clipPath><clipPath id="09aa9c5fd7"><path d="M 180.8125 450.199219 L 203.429688 450.199219 L 203.429688 475.15625 L 180.8125 475.15625 Z M 180.8125 450.199219 " clip-rule="nonzero"/></clipPath><clipPath id="11d6fe91d8"><path d="M 158.199219 475.15625 L 180.8125 475.15625 L 180.8125 500.109375 L 158.199219 500.109375 Z M 158.199219 475.15625 " clip-rule="nonzero"/></clipPath><clipPath id="b92f076770"><path d="M 135.582031 450.199219 L 158.199219 450.199219 L 158.199219 475.15625 L 135.582031 475.15625 Z M 135.582031 450.199219 " clip-rule="nonzero"/></clipPath><clipPath id="8e57b7cf27"><path d="M 180.8125 500.109375 L 203.429688 500.109375 L 203.429688 525.0625 L 180.8125 525.0625 Z M 180.8125 500.109375 " clip-rule="nonzero"/></clipPath><clipPath id="fe114dad9c"><path d="M 22.507812 325.429688 L 45.125 325.429688 L 45.125 350.382812 L 22.507812 350.382812 Z M 22.507812 325.429688 " clip-rule="nonzero"/></clipPath><clipPath id="c4aa56e7c8"><path d="M 0 300.476562 L 23.144531 300.476562 L 23.144531 325.429688 L 0 325.429688 Z M 0 300.476562 " clip-rule="nonzero"/></clipPath><clipPath id="d42bcde857"><path d="M 0 250.5625 L 23.152344 250.5625 L 23.152344 275.515625 L 0 275.515625 Z M 0 250.5625 " clip-rule="nonzero"/></clipPath><clipPath id="f81ff87e77"><path d="M 23.15625 225.605469 L 45.769531 225.605469 L 45.769531 250.5625 L 23.15625 250.5625 Z M 23.15625 225.605469 " clip-rule="nonzero"/></clipPath><clipPath id="efa3cbe19f"><path d="M 45.769531 250.5625 L 68.382812 250.5625 L 68.382812 275.515625 L 45.769531 275.515625 Z M 45.769531 250.5625 " clip-rule="nonzero"/></clipPath><clipPath id="7052b75bb9"><path d="M 68.382812 225.605469 L 91 225.605469 L 91 250.5625 L 68.382812 250.5625 Z M 68.382812 225.605469 " clip-rule="nonzero"/></clipPath><clipPath id="27bf00a14e"><path d="M 0 200.652344 L 23.152344 200.652344 L 23.152344 225.609375 L 0 225.609375 Z M 0 200.652344 " clip-rule="nonzero"/></clipPath><clipPath id="904f743e2c"><path d="M 45.769531 200.652344 L 68.382812 200.652344 L 68.382812 225.605469 L 45.769531 225.605469 Z M 45.769531 200.652344 " clip-rule="nonzero"/></clipPath><clipPath id="a2265ce9b8"><path d="M 23.339844 175.699219 L 45.953125 175.699219 L 45.953125 200.652344 L 23.339844 200.652344 Z M 23.339844 175.699219 " clip-rule="nonzero"/></clipPath><clipPath id="cd09938ad1"><path d="M 45.953125 150.746094 L 68.570312 150.746094 L 68.570312 175.699219 L 45.953125 175.699219 Z M 45.953125 150.746094 " clip-rule="nonzero"/></clipPath><clipPath id="6feb0284ef"><path d="M 68.570312 175.699219 L 91.183594 175.699219 L 91.183594 200.652344 L 68.570312 200.652344 Z M 68.570312 175.699219 " clip-rule="nonzero"/></clipPath><clipPath id="baea55c56d"><path d="M 91.183594 150.746094 L 113.800781 150.746094 L 113.800781 175.699219 L 91.183594 175.699219 Z M 91.183594 150.746094 " clip-rule="nonzero"/></clipPath><clipPath id="94038a3c41"><path d="M 23.339844 125.789062 L 45.953125 125.789062 L 45.953125 150.746094 L 23.339844 150.746094 Z M 23.339844 125.789062 " clip-rule="nonzero"/></clipPath><clipPath id="1e7609402c"><path d="M 68.570312 125.789062 L 91.183594 125.789062 L 91.183594 150.746094 L 68.570312 150.746094 Z M 68.570312 125.789062 " clip-rule="nonzero"/></clipPath><clipPath id="fad1bac3bb"><path d="M 90.460938 250.5625 L 113.078125 250.5625 L 113.078125 275.515625 L 90.460938 275.515625 Z M 90.460938 250.5625 " clip-rule="nonzero"/></clipPath><clipPath id="8e0ad0f76b"><path d="M 113.078125 225.605469 L 135.691406 225.605469 L 135.691406 250.5625 L 113.078125 250.5625 Z M 113.078125 225.605469 " clip-rule="nonzero"/></clipPath><clipPath id="83dc7c20b0"><path d="M 135.691406 250.5625 L 158.304688 250.5625 L 158.304688 275.515625 L 135.691406 275.515625 Z M 135.691406 250.5625 " clip-rule="nonzero"/></clipPath><clipPath id="6701247c79"><path d="M 113.078125 175.699219 L 135.691406 175.699219 L 135.691406 200.652344 L 113.078125 200.652344 Z M 113.078125 175.699219 " clip-rule="nonzero"/></clipPath><clipPath id="6175f59101"><path d="M 90.460938 200.652344 L 113.078125 200.652344 L 113.078125 225.605469 L 90.460938 225.605469 Z M 90.460938 200.652344 " clip-rule="nonzero"/></clipPath><clipPath id="9583c7032f"><path d="M 135.691406 200.652344 L 158.304688 200.652344 L 158.304688 225.605469 L 135.691406 225.605469 Z M 135.691406 200.652344 " clip-rule="nonzero"/></clipPath><clipPath id="da2ab9d467"><path d="M 0 150.746094 L 23.339844 150.746094 L 23.339844 175.699219 L 0 175.699219 Z M 0 150.746094 " clip-rule="nonzero"/></clipPath><clipPath id="2174f46a87"><path d="M 0 100.835938 L 22.617188 100.835938 L 22.617188 125.789062 L 0 125.789062 Z M 0 100.835938 " clip-rule="nonzero"/></clipPath><clipPath id="52924128a0"><path d="M 22.617188 75.882812 L 45.230469 75.882812 L 45.230469 100.835938 L 22.617188 100.835938 Z M 22.617188 75.882812 " clip-rule="nonzero"/></clipPath><clipPath id="a2d058a470"><path d="M 45.230469 100.835938 L 67.847656 100.835938 L 67.847656 125.789062 L 45.230469 125.789062 Z M 45.230469 100.835938 " clip-rule="nonzero"/></clipPath><clipPath id="ec890f1c3c"><path d="M 0 50.925781 L 22.617188 50.925781 L 22.617188 75.882812 L 0 75.882812 Z M 0 50.925781 " clip-rule="nonzero"/></clipPath><clipPath id="03e15f3b43"><path d="M 158.304688 225.605469 L 180.921875 225.605469 L 180.921875 250.5625 L 158.304688 250.5625 Z M 158.304688 225.605469 " clip-rule="nonzero"/></clipPath><clipPath id="200c54d330"><path d="M 180.285156 250.5625 L 202.898438 250.5625 L 202.898438 275.515625 L 180.285156 275.515625 Z M 180.285156 250.5625 " clip-rule="nonzero"/></clipPath><clipPath id="b7c42c9f06"><path d="M 111.894531 25.09375 L 134.507812 25.09375 L 134.507812 50.046875 L 111.894531 50.046875 Z M 111.894531 25.09375 " clip-rule="nonzero"/></clipPath><clipPath id="0aa80c4d42"><path d="M 134.324219 99.957031 L 156.9375 99.957031 L 156.9375 124.910156 L 134.324219 124.910156 Z M 134.324219 99.957031 " clip-rule="nonzero"/></clipPath><clipPath id="898f08e9b2"><path d="M 111.707031 75 L 134.324219 75 L 134.324219 99.957031 L 111.707031 99.957031 Z M 111.707031 75 " clip-rule="nonzero"/></clipPath><clipPath id="c2683437b0"><path d="M 89.09375 99.957031 L 111.707031 99.957031 L 111.707031 124.910156 L 89.09375 124.910156 Z M 89.09375 99.957031 " clip-rule="nonzero"/></clipPath><clipPath id="8aad8c2cd8"><path d="M 156.9375 124.910156 L 179.550781 124.910156 L 179.550781 149.863281 L 156.9375 149.863281 Z M 156.9375 124.910156 " clip-rule="nonzero"/></clipPath><clipPath id="b05d423fb2"><path d="M 111.707031 124.910156 L 134.324219 124.910156 L 134.324219 149.863281 L 111.707031 149.863281 Z M 111.707031 124.910156 " clip-rule="nonzero"/></clipPath><clipPath id="3a2e118655"><path d="M 89.816406 0.140625 L 112.429688 0.140625 L 112.429688 25.09375 L 89.816406 25.09375 Z M 89.816406 0.140625 " clip-rule="nonzero"/></clipPath><clipPath id="cae9737fc9"><path d="M 67.203125 25.09375 L 89.816406 25.09375 L 89.816406 50.046875 L 67.203125 50.046875 Z M 67.203125 25.09375 " clip-rule="nonzero"/></clipPath><clipPath id="4273449f7b"><path d="M 44.585938 0.140625 L 67.203125 0.140625 L 67.203125 25.09375 L 44.585938 25.09375 Z M 44.585938 0.140625 " clip-rule="nonzero"/></clipPath><clipPath id="098d8a19c4"><path d="M 67.203125 75 L 89.816406 75 L 89.816406 99.957031 L 67.203125 99.957031 Z M 67.203125 75 " clip-rule="nonzero"/></clipPath><clipPath id="4ae0e91297"><path d="M 89.816406 50.046875 L 112.429688 50.046875 L 112.429688 75 L 89.816406 75 Z M 89.816406 50.046875 " clip-rule="nonzero"/></clipPath><clipPath id="c0030d2285"><path d="M 44.585938 50.046875 L 67.203125 50.046875 L 67.203125 75 L 44.585938 75 Z M 44.585938 50.046875 " clip-rule="nonzero"/></clipPath><clipPath id="a8aa8843a1"><path d="M 179.550781 99.957031 L 202.167969 99.957031 L 202.167969 124.910156 L 179.550781 124.910156 Z M 179.550781 99.957031 " clip-rule="nonzero"/></clipPath><clipPath id="1cd1d1c9f6"><path d="M 180.277344 149.863281 L 202.890625 149.863281 L 202.890625 174.820312 L 180.277344 174.820312 Z M 180.277344 149.863281 " clip-rule="nonzero"/></clipPath><clipPath id="291001d148"><path d="M 157.660156 174.820312 L 180.277344 174.820312 L 180.277344 199.773438 L 157.660156 199.773438 Z M 157.660156 174.820312 " clip-rule="nonzero"/></clipPath><clipPath id="e2d9de75c4"><path d="M 135.046875 149.863281 L 157.660156 149.863281 L 157.660156 174.820312 L 135.046875 174.820312 Z M 135.046875 149.863281 " clip-rule="nonzero"/></clipPath><clipPath id="a8165c795a"><path d="M 180.277344 199.773438 L 202.890625 199.773438 L 202.890625 224.726562 L 180.277344 224.726562 Z M 180.277344 199.773438 " clip-rule="nonzero"/></clipPath><clipPath id="f400210dbe"><path d="M 21.972656 25.09375 L 44.585938 25.09375 L 44.585938 50.046875 L 21.972656 50.046875 Z M 21.972656 25.09375 " clip-rule="nonzero"/></clipPath><clipPath id="d9a2fc437f"><path d="M 0 0.140625 L 22.609375 0.140625 L 22.609375 25.09375 L 0 25.09375 Z M 0 0.140625 " clip-rule="nonzero"/></clipPath><clipPath id="1d8408b186"><path d="M 158.304688 275.515625 L 180.921875 275.515625 L 180.921875 300.46875 L 158.304688 300.46875 Z M 158.304688 275.515625 " clip-rule="nonzero"/></clipPath><clipPath id="e9c242a230"><path d="M 111.714844 275.515625 L 134.332031 275.515625 L 134.332031 300.46875 L 111.714844 300.46875 Z M 111.714844 275.515625 " clip-rule="nonzero"/></clipPath><clipPath id="95f595a4c1"><path d="M 68.570312 274.445312 L 91.183594 274.445312 L 91.183594 299.398438 L 68.570312 299.398438 Z M 68.570312 274.445312 " clip-rule="nonzero"/></clipPath><clipPath id="654f536866"><path d="M 21.980469 275.515625 L 44.59375 275.515625 L 44.59375 300.46875 L 21.980469 300.46875 Z M 21.980469 275.515625 " clip-rule="nonzero"/></clipPath><clipPath id="2a0015c085"><path d="M 203.089844 124.910156 L 225.707031 124.910156 L 225.707031 149.863281 L 203.089844 149.863281 Z M 203.089844 124.910156 " clip-rule="nonzero"/></clipPath><clipPath id="520a9f2427"><path d="M 203.089844 174.167969 L 225.707031 174.167969 L 225.707031 199.121094 L 203.089844 199.121094 Z M 203.089844 174.167969 " clip-rule="nonzero"/></clipPath><clipPath id="0f75c8fa9f"><path d="M 226.03125 199.128906 L 249.480469 199.128906 L 249.480469 225.617188 L 226.03125 225.617188 Z M 226.03125 199.128906 " clip-rule="nonzero"/></clipPath><clipPath id="beb41b0213"><path d="M 203.089844 275.519531 L 225.707031 275.519531 L 225.707031 300.476562 L 203.089844 300.476562 Z M 203.089844 275.519531 " clip-rule="nonzero"/></clipPath><clipPath id="7be3194c58"><path d="M 203.089844 225.613281 L 225.707031 225.613281 L 225.707031 250.566406 L 203.089844 250.566406 Z M 203.089844 225.613281 " clip-rule="nonzero"/></clipPath><clipPath id="63ef178f95"><path d="M 203.089844 326.253906 L 227.109375 326.253906 L 227.109375 351.207031 L 203.089844 351.207031 Z M 203.089844 326.253906 " clip-rule="nonzero"/></clipPath><clipPath id="9392318b18"><path d="M 202.355469 426.242188 L 227.113281 426.242188 L 227.113281 451.109375 L 202.355469 451.109375 Z M 202.355469 426.242188 " clip-rule="nonzero"/></clipPath><clipPath id="24cfd1b2a3"><path d="M 203.425781 524.347656 L 226.039062 524.347656 L 226.039062 549.300781 L 203.425781 549.300781 Z M 203.425781 524.347656 " clip-rule="nonzero"/></clipPath><clipPath id="bdb4235135"><path d="M 203.425781 475.089844 L 226.039062 475.089844 L 226.039062 500 L 203.425781 500 Z M 203.425781 475.089844 " clip-rule="nonzero"/></clipPath><clipPath id="0448bed068"><path d="M 225.707031 499.394531 L 248.320312 499.394531 L 248.320312 524.347656 L 225.707031 524.347656 Z M 225.707031 499.394531 " clip-rule="nonzero"/></clipPath><clipPath id="f6f7276870"><path d="M 225.707031 250.566406 L 248.320312 250.566406 L 248.320312 275.519531 L 225.707031 275.519531 Z M 225.707031 250.566406 " clip-rule="nonzero"/></clipPath><clipPath id="690f0b405b"><path d="M 203.089844 375.511719 L 227.109375 375.511719 L 227.109375 400.464844 L 203.089844 400.464844 Z M 203.089844 375.511719 " clip-rule="nonzero"/></clipPath><clipPath id="4cadfd9eac"><path d="M 227.113281 350.882812 L 249.726562 350.882812 L 249.726562 375.835938 L 227.113281 375.835938 Z M 227.113281 350.882812 " clip-rule="nonzero"/></clipPath><clipPath id="1b11eabe9e"><path d="M 225.707031 550.902344 L 248.320312 550.902344 L 248.320312 575.859375 L 225.707031 575.859375 Z M 225.707031 550.902344 " clip-rule="nonzero"/></clipPath><clipPath id="005e3f8baf"><path d="M 227.113281 400.878906 L 249.726562 400.878906 L 249.726562 425.832031 L 227.113281 425.832031 Z M 227.113281 400.878906 " clip-rule="nonzero"/></clipPath><clipPath id="a1293eefbf"><path d="M 181.449219 0.140625 L 204.066406 0.140625 L 204.066406 22.945312 L 181.449219 22.945312 Z M 181.449219 0.140625 " clip-rule="nonzero"/></clipPath><clipPath id="5f4391ad09"><path d="M 158.835938 22.945312 L 181.449219 22.945312 L 181.449219 47.898438 L 158.835938 47.898438 Z M 158.835938 22.945312 " clip-rule="nonzero"/></clipPath><clipPath id="241334f4ea"><path d="M 136.21875 0.140625 L 158.835938 0.140625 L 158.835938 22.945312 L 136.21875 22.945312 Z M 136.21875 0.140625 " clip-rule="nonzero"/></clipPath><clipPath id="7b275ee6d1"><path d="M 181.449219 47.898438 L 204.066406 47.898438 L 204.066406 72.851562 L 181.449219 72.851562 Z M 181.449219 47.898438 " clip-rule="nonzero"/></clipPath><clipPath id="b4df59c8f7"><path d="M 136.21875 47.898438 L 158.835938 47.898438 L 158.835938 72.851562 L 136.21875 72.851562 Z M 136.21875 47.898438 " clip-rule="nonzero"/></clipPath><clipPath id="6f3672f826"><path d="M 158.648438 72.851562 L 181.265625 72.851562 L 181.265625 97.808594 L 158.648438 97.808594 Z M 158.648438 72.851562 " clip-rule="nonzero"/></clipPath><clipPath id="513059c83f"><path d="M 203.242188 72.117188 L 227.414062 72.117188 L 227.414062 98.457031 L 203.242188 98.457031 Z M 203.242188 72.117188 " clip-rule="nonzero"/></clipPath><clipPath id="ba6d7af16f"><path d="M 204.601562 22.945312 L 227.21875 22.945312 L 227.21875 47.898438 L 204.601562 47.898438 Z M 204.601562 22.945312 " clip-rule="nonzero"/></clipPath><clipPath id="1455d934d5"><path d="M 227.21875 48.785156 L 249.832031 48.785156 L 249.832031 73.738281 L 227.21875 73.738281 Z M 227.21875 48.785156 " clip-rule="nonzero"/></clipPath><clipPath id="34faf6274f"><path d="M 226.582031 0.140625 L 249.195312 0.140625 L 249.195312 22.195312 L 226.582031 22.195312 Z M 226.582031 0.140625 " clip-rule="nonzero"/></clipPath><clipPath id="0f24288cab"><path d="M 226.445312 149.214844 L 249.058594 149.214844 L 249.058594 174.167969 L 226.445312 174.167969 Z M 226.445312 149.214844 " clip-rule="nonzero"/></clipPath><clipPath id="9328587dd0"><path d="M 227.113281 99.957031 L 249.726562 99.957031 L 249.726562 124.910156 L 227.113281 124.910156 Z M 227.113281 99.957031 " clip-rule="nonzero"/></clipPath><clipPath id="3d3bc0948a"><path d="M 227.113281 301.296875 L 249.726562 301.296875 L 249.726562 326.253906 L 227.113281 326.253906 Z M 227.113281 301.296875 " clip-rule="nonzero"/></clipPath><clipPath id="37bddaf2c4"><path d="M 227.113281 450.136719 L 249.726562 450.136719 L 249.726562 475.089844 L 227.113281 475.089844 Z M 227.113281 450.136719 " clip-rule="nonzero"/></clipPath></defs><g clip-path="url(#2a80f0b7fa)"><path fill="#ffffff" d="M 0 0.140625 L 1024 0.140625 L 1024 575.859375 L 0 575.859375 Z M 0 0.140625 " fill-opacity="1" fill-rule="nonzero"/><path fill="#ffffff" d="M 0 0.140625 L 1024 0.140625 L 1024 575.859375 L 0 575.859375 Z M 0 0.140625 " fill-opacity="1" fill-rule="nonzero"/></g><g clip-path="url(#3da8094674)"><path fill="#222222" d="M 0 575.851562 L 0 550.867188 L 23.691406 550.867188 L 23.691406 575.851562 Z M 0 575.851562 " fill-opacity="1" fill-rule="nonzero"/></g><g clip-path="url(#f3229754d5)"><path fill="#222222" d="M 23.691406 550.898438 L 23.691406 525.988281 L 46.308594 525.988281 L 46.308594 550.898438 Z M 23.691406 550.898438 " fill-opacity="1" fill-rule="nonzero"/></g><g clip-path="url(#95fb5c4026)"><path fill="#222222" d="M 46.308594 575.851562 L 46.308594 550.941406 L 68.921875 550.941406 L 68.921875 575.851562 Z M 46.308594 575.851562 " fill-opacity="1" fill-rule="nonzero"/></g><g clip-path="url(#11e81e4107)"><path fill="#222222" d="M 68.921875 550.898438 L 68.921875 525.988281 L 91.535156 525.988281 L 91.535156 550.898438 Z M 68.921875 550.898438 " fill-opacity="1" fill-rule="nonzero"/></g><g clip-path="url(#cf3c3ab39f)"><path fill="#222222" d="M 0 525.945312 L 0 500.957031 L 23.691406 500.957031 L 23.691406 525.945312 Z M 0 525.945312 " fill-opacity="1" fill-rule="nonzero"/></g><g clip-path="url(#d6169c7414)"><path fill="#222222" d="M 46.308594 525.945312 L 46.308594 501.03125 L 68.921875 501.03125 L 68.921875 525.945312 Z M 46.308594 525.945312 " fill-opacity="1" fill-rule="nonzero"/></g><g clip-path="url(#9c00060e25)"><path fill="#222222" d="M 23.878906 500.988281 L 23.878906 476.078125 L 46.492188 476.078125 L 46.492188 500.988281 Z M 23.878906 500.988281 " fill-opacity="1" fill-rule="nonzero"/></g><g clip-path="url(#8e9f85ba0c)"><path fill="#222222" d="M 46.492188 476.035156 L 46.492188 451.125 L 69.105469 451.125 L 69.105469 476.035156 Z M 46.492188 476.035156 " fill-opacity="1" fill-rule="nonzero"/></g><g clip-path="url(#667e5671e7)"><path fill="#222222" d="M 69.105469 500.988281 L 69.105469 476.078125 L 91.722656 476.078125 L 91.722656 500.988281 Z M 69.105469 500.988281 " fill-opacity="1" fill-rule="nonzero"/></g><g clip-path="url(#35aa23a97f)"><path fill="#222222" d="M 91.722656 476.035156 L 91.722656 451.125 L 114.335938 451.125 L 114.335938 476.035156 Z M 91.722656 476.035156 " fill-opacity="1" fill-rule="nonzero"/></g><g clip-path="url(#6c086d459c)"><path fill="#222222" d="M 23.878906 451.082031 L 23.878906 426.167969 L 46.492188 426.167969 L 46.492188 451.082031 Z M 23.878906 451.082031 " fill-opacity="1" fill-rule="nonzero"/></g><g clip-path="url(#e085e3cc5a)"><path fill="#222222" d="M 69.105469 451.082031 L 69.105469 426.167969 L 91.722656 426.167969 L 91.722656 451.082031 Z M 69.105469 451.082031 " fill-opacity="1" fill-rule="nonzero"/></g><g clip-path="url(#4fb4580da0)"><path fill="#222222" d="M 91 575.851562 L 91 550.941406 L 113.613281 550.941406 L 113.613281 575.851562 Z M 91 575.851562 " fill-opacity="1" fill-rule="nonzero"/></g><g clip-path="url(#24d0a39711)"><path fill="#222222" d="M 113.613281 550.898438 L 113.613281 525.988281 L 136.230469 525.988281 L 136.230469 550.898438 Z M 113.613281 550.898438 " fill-opacity="1" fill-rule="nonzero"/></g><g clip-path="url(#047638c06b)"><path fill="#222222" d="M 136.230469 575.851562 L 136.230469 550.941406 L 158.84375 550.941406 L 158.84375 575.851562 Z M 136.230469 575.851562 " fill-opacity="1" fill-rule="nonzero"/></g><g clip-path="url(#df39c561de)"><path fill="#222222" d="M 113.613281 500.988281 L 113.613281 476.078125 L 136.230469 476.078125 L 136.230469 500.988281 Z M 113.613281 500.988281 " fill-opacity="1" fill-rule="nonzero"/></g><g clip-path="url(#8f3da88f81)"><path fill="#222222" d="M 91 525.945312 L 91 501.03125 L 113.613281 501.03125 L 113.613281 525.945312 Z M 91 525.945312 " fill-opacity="1" fill-rule="nonzero"/></g><g clip-path="url(#42e471eb3a)"><path fill="#222222" d="M 136.230469 525.945312 L 136.230469 501.03125 L 158.84375 501.03125 L 158.84375 525.945312 Z M 136.230469 525.945312 " fill-opacity="1" fill-rule="nonzero"/></g><g clip-path="url(#abd99d4c33)"><path fill="#222222" d="M 0 476.039062 L 0 451.042969 L 23.875 451.042969 L 23.875 476.039062 Z M 0 476.039062 " fill-opacity="1" fill-rule="nonzero"/></g><g clip-path="url(#6ce5ba32a7)"><path fill="#222222" d="M 0 426.128906 L 0 401.164062 L 23.152344 401.164062 L 23.152344 426.128906 Z M 0 426.128906 " fill-opacity="1" fill-rule="nonzero"/></g><g clip-path="url(#ebe3e97eb0)"><path fill="#222222" d="M 23.15625 401.171875 L 23.15625 376.261719 L 45.769531 376.261719 L 45.769531 401.171875 Z M 23.15625 401.171875 " fill-opacity="1" fill-rule="nonzero"/></g><g clip-path="url(#111e27596a)"><path fill="#222222" d="M 45.769531 426.125 L 45.769531 401.214844 L 68.382812 401.214844 L 68.382812 426.125 Z M 45.769531 426.125 " fill-opacity="1" fill-rule="nonzero"/></g><g clip-path="url(#1ee5b76702)"><path fill="#222222" d="M 0 376.21875 L 0 351.257812 L 23.152344 351.257812 L 23.152344 376.21875 Z M 0 376.21875 " fill-opacity="1" fill-rule="nonzero"/></g><g clip-path="url(#b650b5d833)"><path fill="#222222" d="M 158.84375 550.898438 L 158.84375 525.988281 L 181.457031 525.988281 L 181.457031 550.898438 Z M 158.84375 550.898438 " fill-opacity="1" fill-rule="nonzero"/></g><g clip-path="url(#bfdbd0aed1)"><path fill="#222222" d="M 180.824219 575.851562 L 180.824219 550.941406 L 203.4375 550.941406 L 203.4375 575.851562 Z M 180.824219 575.851562 " fill-opacity="1" fill-rule="nonzero"/></g><g clip-path="url(#8d6601fb61)"><path fill="#222222" d="M 202.890625 300.476562 L 202.890625 325.386719 L 180.277344 325.386719 L 180.277344 300.476562 Z M 202.890625 300.476562 " fill-opacity="1" fill-rule="nonzero"/></g><g clip-path="url(#2cd7a45176)"><path fill="#222222" d="M 180.277344 325.429688 L 180.277344 350.339844 L 157.660156 350.339844 L 157.660156 325.429688 Z M 180.277344 325.429688 " fill-opacity="1" fill-rule="nonzero"/></g><g clip-path="url(#b2b94bdf58)"><path fill="#222222" d="M 157.660156 300.476562 L 157.660156 325.386719 L 135.046875 325.386719 L 135.046875 300.476562 Z M 157.660156 300.476562 " fill-opacity="1" fill-rule="nonzero"/></g><g clip-path="url(#6596654634)"><path fill="#222222" d="M 135.046875 325.429688 L 135.046875 350.339844 L 112.429688 350.339844 L 112.429688 325.429688 Z M 135.046875 325.429688 " fill-opacity="1" fill-rule="nonzero"/></g><g clip-path="url(#86e0937b17)"><path fill="#222222" d="M 202.890625 350.382812 L 202.890625 375.296875 L 180.277344 375.296875 L 180.277344 350.382812 Z M 202.890625 350.382812 " fill-opacity="1" fill-rule="nonzero"/></g><g clip-path="url(#088c8b138a)"><path fill="#222222" d="M 157.660156 350.382812 L 157.660156 375.296875 L 135.046875 375.296875 L 135.046875 350.382812 Z M 157.660156 350.382812 " fill-opacity="1" fill-rule="nonzero"/></g><g clip-path="url(#6f464b45a5)"><path fill="#222222" d="M 180.089844 375.339844 L 180.089844 400.25 L 157.476562 400.25 L 157.476562 375.339844 Z M 180.089844 375.339844 " fill-opacity="1" fill-rule="nonzero"/></g><g clip-path="url(#a72087805f)"><path fill="#222222" d="M 157.476562 400.292969 L 157.476562 425.203125 L 134.859375 425.203125 L 134.859375 400.292969 Z M 157.476562 400.292969 " fill-opacity="1" fill-rule="nonzero"/></g><g clip-path="url(#4f53c1a445)"><path fill="#222222" d="M 134.859375 375.339844 L 134.859375 400.25 L 112.246094 400.25 L 112.246094 375.339844 Z M 134.859375 375.339844 " fill-opacity="1" fill-rule="nonzero"/></g><g clip-path="url(#1e25338c66)"><path fill="#222222" d="M 112.246094 400.292969 L 112.246094 425.203125 L 89.628906 425.203125 L 89.628906 400.292969 Z M 112.246094 400.292969 " fill-opacity="1" fill-rule="nonzero"/></g><g clip-path="url(#07dadab620)"><path fill="#222222" d="M 180.089844 425.246094 L 180.089844 450.160156 L 157.476562 450.160156 L 157.476562 425.246094 Z M 180.089844 425.246094 " fill-opacity="1" fill-rule="nonzero"/></g><g clip-path="url(#8083d15035)"><path fill="#222222" d="M 134.859375 425.246094 L 134.859375 450.160156 L 112.246094 450.160156 L 112.246094 425.246094 Z M 134.859375 425.246094 " fill-opacity="1" fill-rule="nonzero"/></g><g clip-path="url(#b8e6d8a77a)"><path fill="#222222" d="M 112.96875 300.476562 L 112.96875 325.386719 L 90.355469 325.386719 L 90.355469 300.476562 Z M 112.96875 300.476562 " fill-opacity="1" fill-rule="nonzero"/></g><g clip-path="url(#0af80d9cef)"><path fill="#222222" d="M 90.355469 325.429688 L 90.355469 350.339844 L 67.738281 350.339844 L 67.738281 325.429688 Z M 90.355469 325.429688 " fill-opacity="1" fill-rule="nonzero"/></g><g clip-path="url(#fad2c6b031)"><path fill="#222222" d="M 67.738281 300.476562 L 67.738281 325.386719 L 45.125 325.386719 L 45.125 300.476562 Z M 67.738281 300.476562 " fill-opacity="1" fill-rule="nonzero"/></g><g clip-path="url(#c6481bcb95)"><path fill="#222222" d="M 90.355469 375.339844 L 90.355469 400.25 L 67.738281 400.25 L 67.738281 375.339844 Z M 90.355469 375.339844 " fill-opacity="1" fill-rule="nonzero"/></g><g clip-path="url(#62dd25426d)"><path fill="#222222" d="M 112.96875 350.382812 L 112.96875 375.296875 L 90.355469 375.296875 L 90.355469 350.382812 Z M 112.96875 350.382812 " fill-opacity="1" fill-rule="nonzero"/></g><g clip-path="url(#e8b6ee0bf1)"><path fill="#222222" d="M 67.738281 350.382812 L 67.738281 375.296875 L 45.125 375.296875 L 45.125 350.382812 Z M 67.738281 350.382812 " fill-opacity="1" fill-rule="nonzero"/></g><g clip-path="url(#e9d2a13ffd)"><path fill="#222222" d="M 202.707031 400.292969 L 202.707031 425.203125 L 180.089844 425.203125 L 180.089844 400.292969 Z M 202.707031 400.292969 " fill-opacity="1" fill-rule="nonzero"/></g><g clip-path="url(#09aa9c5fd7)"><path fill="#222222" d="M 203.429688 450.199219 L 203.429688 475.113281 L 180.8125 475.113281 L 180.8125 450.199219 Z M 203.429688 450.199219 " fill-opacity="1" fill-rule="nonzero"/></g><g clip-path="url(#11d6fe91d8)"><path fill="#222222" d="M 180.8125 475.15625 L 180.8125 500.066406 L 158.199219 500.066406 L 158.199219 475.15625 Z M 180.8125 475.15625 " fill-opacity="1" fill-rule="nonzero"/></g><g clip-path="url(#b92f076770)"><path fill="#222222" d="M 158.199219 450.199219 L 158.199219 475.113281 L 135.582031 475.113281 L 135.582031 450.199219 Z M 158.199219 450.199219 " fill-opacity="1" fill-rule="nonzero"/></g><g clip-path="url(#8e57b7cf27)"><path fill="#222222" d="M 203.429688 500.109375 L 203.429688 525.019531 L 180.8125 525.019531 L 180.8125 500.109375 Z M 203.429688 500.109375 " fill-opacity="1" fill-rule="nonzero"/></g><g clip-path="url(#fe114dad9c)"><path fill="#222222" d="M 45.125 325.429688 L 45.125 350.339844 L 22.507812 350.339844 L 22.507812 325.429688 Z M 45.125 325.429688 " fill-opacity="1" fill-rule="nonzero"/></g><g clip-path="url(#c4aa56e7c8)"><path fill="#222222" d="M 23.144531 300.476562 L 23.144531 325.4375 L -0.0078125 325.4375 L -0.0078125 300.476562 Z M 23.144531 300.476562 " fill-opacity="1" fill-rule="nonzero"/></g><g clip-path="url(#d42bcde857)"><path fill="#222222" d="M 0 275.515625 L 0 250.554688 L 23.152344 250.554688 L 23.152344 275.515625 Z M 0 275.515625 " fill-opacity="1" fill-rule="nonzero"/></g><g clip-path="url(#f81ff87e77)"><path fill="#222222" d="M 23.15625 250.5625 L 23.15625 225.648438 L 45.769531 225.648438 L 45.769531 250.5625 Z M 23.15625 250.5625 " fill-opacity="1" fill-rule="nonzero"/></g><g clip-path="url(#efa3cbe19f)"><path fill="#222222" d="M 45.769531 275.515625 L 45.769531 250.605469 L 68.382812 250.605469 L 68.382812 275.515625 Z M 45.769531 275.515625 " fill-opacity="1" fill-rule="nonzero"/></g><g clip-path="url(#7052b75bb9)"><path fill="#222222" d="M 68.382812 250.5625 L 68.382812 225.648438 L 91 225.648438 L 91 250.5625 Z M 68.382812 250.5625 " fill-opacity="1" fill-rule="nonzero"/></g><g clip-path="url(#27bf00a14e)"><path fill="#222222" d="M 0 225.609375 L 0 200.644531 L 23.152344 200.644531 L 23.152344 225.609375 Z M 0 225.609375 " fill-opacity="1" fill-rule="nonzero"/></g><g clip-path="url(#904f743e2c)"><path fill="#222222" d="M 45.769531 225.605469 L 45.769531 200.695312 L 68.382812 200.695312 L 68.382812 225.605469 Z M 45.769531 225.605469 " fill-opacity="1" fill-rule="nonzero"/></g><g clip-path="url(#a2265ce9b8)"><path fill="#222222" d="M 23.339844 200.652344 L 23.339844 175.742188 L 45.953125 175.742188 L 45.953125 200.652344 Z M 23.339844 200.652344 " fill-opacity="1" fill-rule="nonzero"/></g><g clip-path="url(#cd09938ad1)"><path fill="#222222" d="M 45.953125 175.699219 L 45.953125 150.785156 L 68.570312 150.785156 L 68.570312 175.699219 Z M 45.953125 175.699219 " fill-opacity="1" fill-rule="nonzero"/></g><g clip-path="url(#6feb0284ef)"><path fill="#222222" d="M 68.570312 200.652344 L 68.570312 175.742188 L 91.183594 175.742188 L 91.183594 200.652344 Z M 68.570312 200.652344 " fill-opacity="1" fill-rule="nonzero"/></g><g clip-path="url(#baea55c56d)"><path fill="#222222" d="M 91.183594 175.699219 L 91.183594 150.785156 L 113.800781 150.785156 L 113.800781 175.699219 Z M 91.183594 175.699219 " fill-opacity="1" fill-rule="nonzero"/></g><g clip-path="url(#94038a3c41)"><path fill="#222222" d="M 23.339844 150.746094 L 23.339844 125.832031 L 45.953125 125.832031 L 45.953125 150.746094 Z M 23.339844 150.746094 " fill-opacity="1" fill-rule="nonzero"/></g><g clip-path="url(#1e7609402c)"><path fill="#222222" d="M 68.570312 150.746094 L 68.570312 125.832031 L 91.183594 125.832031 L 91.183594 150.746094 Z M 68.570312 150.746094 " fill-opacity="1" fill-rule="nonzero"/></g><g clip-path="url(#fad1bac3bb)"><path fill="#222222" d="M 90.460938 275.515625 L 90.460938 250.605469 L 113.078125 250.605469 L 113.078125 275.515625 Z M 90.460938 275.515625 " fill-opacity="1" fill-rule="nonzero"/></g><g clip-path="url(#8e0ad0f76b)"><path fill="#222222" d="M 113.078125 250.5625 L 113.078125 225.648438 L 135.691406 225.648438 L 135.691406 250.5625 Z M 113.078125 250.5625 " fill-opacity="1" fill-rule="nonzero"/></g><g clip-path="url(#83dc7c20b0)"><path fill="#222222" d="M 135.691406 275.515625 L 135.691406 250.605469 L 158.304688 250.605469 L 158.304688 275.515625 Z M 135.691406 275.515625 " fill-opacity="1" fill-rule="nonzero"/></g><g clip-path="url(#6701247c79)"><path fill="#222222" d="M 113.078125 200.652344 L 113.078125 175.742188 L 135.691406 175.742188 L 135.691406 200.652344 Z M 113.078125 200.652344 " fill-opacity="1" fill-rule="nonzero"/></g><g clip-path="url(#6175f59101)"><path fill="#222222" d="M 90.460938 225.605469 L 90.460938 200.695312 L 113.078125 200.695312 L 113.078125 225.605469 Z M 90.460938 225.605469 " fill-opacity="1" fill-rule="nonzero"/></g><g clip-path="url(#9583c7032f)"><path fill="#222222" d="M 135.691406 225.605469 L 135.691406 200.695312 L 158.304688 200.695312 L 158.304688 225.605469 Z M 135.691406 225.605469 " fill-opacity="1" fill-rule="nonzero"/></g><g clip-path="url(#da2ab9d467)"><path fill="#222222" d="M 0 175.699219 L 0 150.722656 L 23.339844 150.722656 L 23.339844 175.699219 Z M 0 175.699219 " fill-opacity="1" fill-rule="nonzero"/></g><g clip-path="url(#2174f46a87)"><path fill="#222222" d="M 0 125.789062 L 0 100.878906 L 22.617188 100.878906 L 22.617188 125.789062 Z M 0 125.789062 " fill-opacity="1" fill-rule="nonzero"/></g><g clip-path="url(#52924128a0)"><path fill="#222222" d="M 22.617188 100.835938 L 22.617188 75.925781 L 45.230469 75.925781 L 45.230469 100.835938 Z M 22.617188 100.835938 " fill-opacity="1" fill-rule="nonzero"/></g><g clip-path="url(#a2d058a470)"><path fill="#222222" d="M 45.230469 125.789062 L 45.230469 100.878906 L 67.847656 100.878906 L 67.847656 125.789062 Z M 45.230469 125.789062 " fill-opacity="1" fill-rule="nonzero"/></g><g clip-path="url(#ec890f1c3c)"><path fill="#222222" d="M 0 75.882812 L 0 50.96875 L 22.617188 50.96875 L 22.617188 75.882812 Z M 0 75.882812 " fill-opacity="1" fill-rule="nonzero"/></g><g clip-path="url(#03e15f3b43)"><path fill="#222222" d="M 158.304688 250.5625 L 158.304688 225.648438 L 180.921875 225.648438 L 180.921875 250.5625 Z M 158.304688 250.5625 " fill-opacity="1" fill-rule="nonzero"/></g><g clip-path="url(#200c54d330)"><path fill="#222222" d="M 180.285156 275.515625 L 180.285156 250.605469 L 202.898438 250.605469 L 202.898438 275.515625 Z M 180.285156 275.515625 " fill-opacity="1" fill-rule="nonzero"/></g><g clip-path="url(#b7c42c9f06)"><path fill="#222222" d="M 134.507812 25.09375 L 134.507812 50.003906 L 111.894531 50.003906 L 111.894531 25.09375 Z M 134.507812 25.09375 " fill-opacity="1" fill-rule="nonzero"/></g><g clip-path="url(#0aa80c4d42)"><path fill="#222222" d="M 156.9375 99.957031 L 156.9375 124.867188 L 134.324219 124.867188 L 134.324219 99.957031 Z M 156.9375 99.957031 " fill-opacity="1" fill-rule="nonzero"/></g><g clip-path="url(#898f08e9b2)"><path fill="#222222" d="M 134.324219 75 L 134.324219 99.914062 L 111.707031 99.914062 L 111.707031 75 Z M 134.324219 75 " fill-opacity="1" fill-rule="nonzero"/></g><g clip-path="url(#c2683437b0)"><path fill="#222222" d="M 111.707031 99.957031 L 111.707031 124.867188 L 89.09375 124.867188 L 89.09375 99.957031 Z M 111.707031 99.957031 " fill-opacity="1" fill-rule="nonzero"/></g><g clip-path="url(#8aad8c2cd8)"><path fill="#222222" d="M 179.550781 124.910156 L 179.550781 149.820312 L 156.9375 149.820312 L 156.9375 124.910156 Z M 179.550781 124.910156 " fill-opacity="1" fill-rule="nonzero"/></g><g clip-path="url(#b05d423fb2)"><path fill="#222222" d="M 134.324219 124.910156 L 134.324219 149.820312 L 111.707031 149.820312 L 111.707031 124.910156 Z M 134.324219 124.910156 " fill-opacity="1" fill-rule="nonzero"/></g><g clip-path="url(#3a2e118655)"><path fill="#222222" d="M 112.429688 0.140625 L 112.429688 25.050781 L 89.816406 25.050781 L 89.816406 0.140625 Z M 112.429688 0.140625 " fill-opacity="1" fill-rule="nonzero"/></g><g clip-path="url(#cae9737fc9)"><path fill="#222222" d="M 89.816406 25.09375 L 89.816406 50.003906 L 67.203125 50.003906 L 67.203125 25.09375 Z M 89.816406 25.09375 " fill-opacity="1" fill-rule="nonzero"/></g><g clip-path="url(#4273449f7b)"><path fill="#222222" d="M 67.203125 0.140625 L 67.203125 25.050781 L 44.585938 25.050781 L 44.585938 0.140625 Z M 67.203125 0.140625 " fill-opacity="1" fill-rule="nonzero"/></g><g clip-path="url(#098d8a19c4)"><path fill="#222222" d="M 89.816406 75 L 89.816406 99.914062 L 67.203125 99.914062 L 67.203125 75 Z M 89.816406 75 " fill-opacity="1" fill-rule="nonzero"/></g><g clip-path="url(#4ae0e91297)"><path fill="#222222" d="M 112.429688 50.046875 L 112.429688 74.960938 L 89.816406 74.960938 L 89.816406 50.046875 Z M 112.429688 50.046875 " fill-opacity="1" fill-rule="nonzero"/></g><g clip-path="url(#c0030d2285)"><path fill="#222222" d="M 67.203125 50.046875 L 67.203125 74.960938 L 44.585938 74.960938 L 44.585938 50.046875 Z M 67.203125 50.046875 " fill-opacity="1" fill-rule="nonzero"/></g><g clip-path="url(#a8aa8843a1)"><path fill="#222222" d="M 202.167969 99.957031 L 202.167969 124.867188 L 179.550781 124.867188 L 179.550781 99.957031 Z M 202.167969 99.957031 " fill-opacity="1" fill-rule="nonzero"/></g><g clip-path="url(#1cd1d1c9f6)"><path fill="#222222" d="M 202.890625 149.863281 L 202.890625 174.777344 L 180.277344 174.777344 L 180.277344 149.863281 Z M 202.890625 149.863281 " fill-opacity="1" fill-rule="nonzero"/></g><g clip-path="url(#291001d148)"><path fill="#222222" d="M 180.277344 174.820312 L 180.277344 199.730469 L 157.660156 199.730469 L 157.660156 174.820312 Z M 180.277344 174.820312 " fill-opacity="1" fill-rule="nonzero"/></g><g clip-path="url(#e2d9de75c4)"><path fill="#222222" d="M 157.660156 149.863281 L 157.660156 174.777344 L 135.046875 174.777344 L 135.046875 149.863281 Z M 157.660156 149.863281 " fill-opacity="1" fill-rule="nonzero"/></g><g clip-path="url(#a8165c795a)"><path fill="#222222" d="M 202.890625 199.773438 L 202.890625 224.683594 L 180.277344 224.683594 L 180.277344 199.773438 Z M 202.890625 199.773438 " fill-opacity="1" fill-rule="nonzero"/></g><g clip-path="url(#f400210dbe)"><path fill="#222222" d="M 44.585938 25.09375 L 44.585938 50.003906 L 21.972656 50.003906 L 21.972656 25.09375 Z M 44.585938 25.09375 " fill-opacity="1" fill-rule="nonzero"/></g><g clip-path="url(#d9a2fc437f)"><path fill="#222222" d="M 22.609375 0.140625 L 22.609375 25.050781 L -0.0078125 25.050781 L -0.0078125 0.140625 Z M 22.609375 0.140625 " fill-opacity="1" fill-rule="nonzero"/></g><g clip-path="url(#1d8408b186)"><path fill="#222222" d="M 158.304688 300.46875 L 158.304688 275.558594 L 180.921875 275.558594 L 180.921875 300.46875 Z M 158.304688 300.46875 " fill-opacity="1" fill-rule="nonzero"/></g><g clip-path="url(#e9c242a230)"><path fill="#222222" d="M 111.714844 300.46875 L 111.714844 275.558594 L 134.332031 275.558594 L 134.332031 300.46875 Z M 111.714844 300.46875 " fill-opacity="1" fill-rule="nonzero"/></g><g clip-path="url(#95f595a4c1)"><path fill="#222222" d="M 68.570312 299.398438 L 68.570312 274.484375 L 91.183594 274.484375 L 91.183594 299.398438 Z M 68.570312 299.398438 " fill-opacity="1" fill-rule="nonzero"/></g><g clip-path="url(#654f536866)"><path fill="#222222" d="M 21.980469 300.46875 L 21.980469 275.558594 L 44.59375 275.558594 L 44.59375 300.46875 Z M 21.980469 300.46875 " fill-opacity="1" fill-rule="nonzero"/></g><g clip-path="url(#2a0015c085)"><path fill="#222222" d="M 225.707031 124.910156 L 225.707031 149.820312 L 203.089844 149.820312 L 203.089844 124.910156 Z M 225.707031 124.910156 " fill-opacity="1" fill-rule="nonzero"/></g><g clip-path="url(#520a9f2427)"><path fill="#222222" d="M 225.707031 174.167969 L 225.707031 199.082031 L 203.089844 199.082031 L 203.089844 174.167969 Z M 225.707031 174.167969 " fill-opacity="1" fill-rule="nonzero"/></g><g clip-path="url(#0f75c8fa9f)"><path fill="#222222" d="M 249.480469 199.128906 L 249.480469 225.601562 L 226.03125 225.601562 L 226.03125 199.128906 Z M 249.480469 199.128906 " fill-opacity="1" fill-rule="nonzero"/></g><g clip-path="url(#beb41b0213)"><path fill="#222222" d="M 225.707031 275.519531 L 225.707031 300.433594 L 203.089844 300.433594 L 203.089844 275.519531 Z M 225.707031 275.519531 " fill-opacity="1" fill-rule="nonzero"/></g><g clip-path="url(#7be3194c58)"><path fill="#222222" d="M 225.707031 225.613281 L 225.707031 250.523438 L 203.089844 250.523438 L 203.089844 225.613281 Z M 225.707031 225.613281 " fill-opacity="1" fill-rule="nonzero"/></g><g clip-path="url(#63ef178f95)"><path fill="#222222" d="M 227.109375 326.253906 L 227.109375 351.210938 L 203.089844 351.210938 L 203.089844 326.253906 Z M 227.109375 326.253906 " fill-opacity="1" fill-rule="nonzero"/></g><g clip-path="url(#9392318b18)"><path fill="#222222" d="M 227.113281 426.242188 L 227.113281 451.09375 L 202.355469 451.09375 L 202.355469 426.242188 Z M 227.113281 426.242188 " fill-opacity="1" fill-rule="nonzero"/></g><g clip-path="url(#24cfd1b2a3)"><path fill="#222222" d="M 226.039062 524.347656 L 226.039062 549.261719 L 203.425781 549.261719 L 203.425781 524.347656 Z M 226.039062 524.347656 " fill-opacity="1" fill-rule="nonzero"/></g><g clip-path="url(#bdb4235135)"><path fill="#222222" d="M 226.039062 475.089844 L 226.039062 500 L 203.425781 500 L 203.425781 475.089844 Z M 226.039062 475.089844 " fill-opacity="1" fill-rule="nonzero"/></g><g clip-path="url(#0448bed068)"><path fill="#222222" d="M 248.320312 499.394531 L 248.320312 524.304688 L 225.707031 524.304688 L 225.707031 499.394531 Z M 248.320312 499.394531 " fill-opacity="1" fill-rule="nonzero"/></g><g clip-path="url(#f6f7276870)"><path fill="#222222" d="M 248.320312 250.566406 L 248.320312 275.480469 L 225.707031 275.480469 L 225.707031 250.566406 Z M 248.320312 250.566406 " fill-opacity="1" fill-rule="nonzero"/></g><g clip-path="url(#690f0b405b)"><path fill="#222222" d="M 227.109375 375.511719 L 227.109375 400.46875 L 203.089844 400.46875 L 203.089844 375.511719 Z M 227.109375 375.511719 " fill-opacity="1" fill-rule="nonzero"/></g><g clip-path="url(#4cadfd9eac)"><path fill="#222222" d="M 249.726562 350.882812 L 249.726562 375.792969 L 227.113281 375.792969 L 227.113281 350.882812 Z M 249.726562 350.882812 " fill-opacity="1" fill-rule="nonzero"/></g><g clip-path="url(#1b11eabe9e)"><path fill="#222222" d="M 248.320312 550.902344 L 248.320312 575.816406 L 225.707031 575.816406 L 225.707031 550.902344 Z M 248.320312 550.902344 " fill-opacity="1" fill-rule="nonzero"/></g><g clip-path="url(#005e3f8baf)"><path fill="#222222" d="M 249.726562 400.878906 L 249.726562 425.789062 L 227.113281 425.789062 L 227.113281 400.878906 Z M 249.726562 400.878906 " fill-opacity="1" fill-rule="nonzero"/></g><g clip-path="url(#a1293eefbf)"><path fill="#222222" d="M 204.066406 -2.011719 L 204.066406 22.902344 L 181.449219 22.902344 L 181.449219 -2.011719 Z M 204.066406 -2.011719 " fill-opacity="1" fill-rule="nonzero"/></g><g clip-path="url(#5f4391ad09)"><path fill="#222222" d="M 181.449219 22.945312 L 181.449219 47.855469 L 158.835938 47.855469 L 158.835938 22.945312 Z M 181.449219 22.945312 " fill-opacity="1" fill-rule="nonzero"/></g><g clip-path="url(#241334f4ea)"><path fill="#222222" d="M 158.835938 -2.011719 L 158.835938 22.902344 L 136.21875 22.902344 L 136.21875 -2.011719 Z M 158.835938 -2.011719 " fill-opacity="1" fill-rule="nonzero"/></g><g clip-path="url(#7b275ee6d1)"><path fill="#222222" d="M 204.066406 47.898438 L 204.066406 72.808594 L 181.449219 72.808594 L 181.449219 47.898438 Z M 204.066406 47.898438 " fill-opacity="1" fill-rule="nonzero"/></g><g clip-path="url(#b4df59c8f7)"><path fill="#222222" d="M 158.835938 47.898438 L 158.835938 72.808594 L 136.21875 72.808594 L 136.21875 47.898438 Z M 158.835938 47.898438 " fill-opacity="1" fill-rule="nonzero"/></g><g clip-path="url(#6f3672f826)"><path fill="#222222" d="M 181.265625 72.851562 L 181.265625 97.765625 L 158.648438 97.765625 L 158.648438 72.851562 Z M 181.265625 72.851562 " fill-opacity="1" fill-rule="nonzero"/></g><g clip-path="url(#513059c83f)"><path fill="#222222" d="M 227.414062 72.117188 L 227.414062 98.464844 L 203.242188 98.464844 L 203.242188 72.117188 Z M 227.414062 72.117188 " fill-opacity="1" fill-rule="nonzero"/></g><g clip-path="url(#ba6d7af16f)"><path fill="#222222" d="M 227.21875 22.945312 L 227.21875 47.855469 L 204.601562 47.855469 L 204.601562 22.945312 Z M 227.21875 22.945312 " fill-opacity="1" fill-rule="nonzero"/></g><g clip-path="url(#1455d934d5)"><path fill="#222222" d="M 249.832031 48.785156 L 249.832031 73.695312 L 227.21875 73.695312 L 227.21875 48.785156 Z M 249.832031 48.785156 " fill-opacity="1" fill-rule="nonzero"/></g><g clip-path="url(#34faf6274f)"><path fill="#222222" d="M 249.195312 -2.761719 L 249.195312 22.152344 L 226.582031 22.152344 L 226.582031 -2.761719 Z M 249.195312 -2.761719 " fill-opacity="1" fill-rule="nonzero"/></g><g clip-path="url(#0f24288cab)"><path fill="#222222" d="M 249.058594 149.214844 L 249.058594 174.125 L 226.445312 174.125 L 226.445312 149.214844 Z M 249.058594 149.214844 " fill-opacity="1" fill-rule="nonzero"/></g><g clip-path="url(#9328587dd0)"><path fill="#222222" d="M 249.726562 99.957031 L 249.726562 124.867188 L 227.113281 124.867188 L 227.113281 99.957031 Z M 249.726562 99.957031 " fill-opacity="1" fill-rule="nonzero"/></g><g clip-path="url(#3d3bc0948a)"><path fill="#222222" d="M 249.726562 301.296875 L 249.726562 326.210938 L 227.113281 326.210938 L 227.113281 301.296875 Z M 249.726562 301.296875 " fill-opacity="1" fill-rule="nonzero"/></g><g clip-path="url(#37bddaf2c4)"><path fill="#222222" d="M 249.726562 450.136719 L 249.726562 475.046875 L 227.113281 475.046875 L 227.113281 450.136719 Z M 249.726562 450.136719 " fill-opacity="1" fill-rule="nonzero"/></g><path fill="#000000" d="M 403.40625 178.703125 L 885.179688 178.703125 L 885.179688 184.816406 L 403.40625 184.816406 Z M 403.40625 178.703125 " fill-opacity="1" fill-rule="nonzero"/><g fill="#000000" fill-opacity="1"><g transform="translate(403.408115, 175.211972)"><g><path d="M 43.609375 0 L 53.300781 0 L 53.300781 -48.457031 L 43.609375 -48.457031 L 43.609375 -19.382812 L 33.917969 -19.382812 L 33.917969 -9.691406 L 43.609375 -9.691406 Z M 4.84375 0 L 14.535156 0 L 14.535156 -29.074219 L 24.226562 -29.074219 L 24.226562 -38.765625 L 14.535156 -38.765625 L 14.535156 -48.457031 L 4.84375 -48.457031 Z M 24.226562 -19.382812 L 33.917969 -19.382812 L 33.917969 -29.074219 L 24.226562 -29.074219 Z M 24.226562 -19.382812 "/></g></g></g><g fill="#000000" fill-opacity="1"><g transform="translate(460.168313, 175.211972)"><g><path d="M 4.84375 0 L 53.300781 0 L 53.300781 -9.691406 L 14.535156 -9.691406 L 14.535156 -19.382812 L 43.609375 -19.382812 L 43.609375 -29.074219 L 14.535156 -29.074219 L 14.535156 -38.765625 L 53.300781 -38.765625 L 53.300781 -48.457031 L 4.84375 -48.457031 Z M 4.84375 0 "/></g></g></g><g fill="#000000" fill-opacity="1"><g transform="translate(516.928511, 175.211972)"><g><path d="M 4.84375 0 L 14.535156 0 L 14.535156 -9.691406 L 43.609375 -9.691406 L 43.609375 -19.382812 L 14.535156 -19.382812 L 14.535156 -38.765625 L 43.609375 -38.765625 L 43.609375 -48.457031 L 4.84375 -48.457031 Z M 43.609375 0 L 53.300781 0 L 53.300781 -9.691406 L 43.609375 -9.691406 Z M 43.609375 -19.382812 L 53.300781 -19.382812 L 53.300781 -38.765625 L 43.609375 -38.765625 Z M 43.609375 -19.382812 "/></g></g></g><g fill="#000000" fill-opacity="1"><g transform="translate(573.688703, 175.211972)"><g><path d="M 43.609375 -9.691406 L 14.535156 -9.691406 L 14.535156 0 L 43.609375 0 Z M 4.84375 -9.691406 L 14.535156 -9.691406 L 14.535156 -38.765625 L 4.84375 -38.765625 Z M 14.535156 -38.765625 L 43.609375 -38.765625 L 43.609375 -48.457031 L 14.535156 -48.457031 Z M 43.609375 -9.691406 L 53.300781 -9.691406 L 53.300781 -38.765625 L 43.609375 -38.765625 Z M 43.609375 -9.691406 "/></g></g></g><g fill="#000000" fill-opacity="1"><g transform="translate(630.448908, 175.211972)"><g/></g></g><g fill="#000000" fill-opacity="1"><g transform="translate(658.136683, 175.211972)"><g><path d="M 14.535156 -38.765625 L 4.84375 -38.765625 L 4.84375 -29.074219 L 14.535156 -29.074219 Z M 4.84375 0 L 43.609375 0 L 43.609375 -9.691406 L 4.84375 -9.691406 Z M 14.535156 -19.382812 L 43.609375 -19.382812 L 43.609375 -29.074219 L 14.535156 -29.074219 Z M 14.535156 -38.765625 L 53.300781 -38.765625 L 53.300781 -48.457031 L 14.535156 -48.457031 Z M 43.609375 -9.691406 L 53.300781 -9.691406 L 53.300781 -19.382812 L 43.609375 -19.382812 Z M 43.609375 -9.691406 "/></g></g></g><g fill="#000000" fill-opacity="1"><g transform="translate(714.896888, 175.211972)"><g><path d="M 4.84375 0 L 14.535156 0 L 14.535156 -19.382812 L 43.609375 -19.382812 L 43.609375 0 L 53.300781 0 L 53.300781 -48.457031 L 43.609375 -48.457031 L 43.609375 -29.074219 L 14.535156 -29.074219 L 14.535156 -48.457031 L 4.84375 -48.457031 Z M 4.84375 0 "/></g></g></g><g fill="#000000" fill-opacity="1"><g transform="translate(771.657093, 175.211972)"><g><path d="M 43.609375 -9.691406 L 14.535156 -9.691406 L 14.535156 0 L 43.609375 0 Z M 4.84375 -9.691406 L 14.535156 -9.691406 L 14.535156 -38.765625 L 4.84375 -38.765625 Z M 14.535156 -38.765625 L 43.609375 -38.765625 L 43.609375 -48.457031 L 14.535156 -48.457031 Z M 43.609375 -9.691406 L 53.300781 -9.691406 L 53.300781 -38.765625 L 43.609375 -38.765625 Z M 43.609375 -9.691406 "/></g></g></g><g fill="#000000" fill-opacity="1"><g transform="translate(828.417297, 175.211972)"><g><path d="M 4.84375 0 L 14.535156 0 L 14.535156 -9.691406 L 43.609375 -9.691406 L 43.609375 -19.382812 L 14.535156 -19.382812 L 14.535156 -38.765625 L 43.609375 -38.765625 L 43.609375 -48.457031 L 4.84375 -48.457031 Z M 43.609375 -19.382812 L 53.300781 -19.382812 L 53.300781 -38.765625 L 43.609375 -38.765625 Z M 43.609375 -19.382812 "/></g></g></g></svg>